# xmcd
#
# Track frame offsets: 
#        150
#        21592
#        40804
#        54539
#        69003
#        82794
#        102210
#        118490
#        138791
#        152936
#        166532
#        183875
#
# Disc length: 2723 seconds
#
# Revision: 8
# Processed by: cddbd v1.5.2PL0 Copyright (c) Steve Scherf et al.
# Submitted via: ExactAudioCopy v1.1
#
DISCID=900aa10c
DTITLE=Status Quo - Rockin' All Over The World (Deluxe Edition 2015) C
DTITLE=D1
DYEAR=1977
DGENRE=Rock
TTITLE0=Hard Time
TTITLE1=Can't Give You More
TTITLE2=Let's Ride
TTITLE3=Baby Boy
TTITLE4=You Don't Own Me
TTITLE5=Rockers Rollin'
TTITLE6=Rockin' All Over The World
TTITLE7=Who Am I?
TTITLE8=Too Far Gone
TTITLE9=For You
TTITLE10=Dirty Water
TTITLE11=Hold You Back
EXTD=
EXTT0=
EXTT1=
EXTT2=
EXTT3=
EXTT4=
EXTT5=
EXTT6=
EXTT7=
EXTT8=
EXTT9=
EXTT10=
EXTT11=
PLAYORDER=
